<svg xmlns="http://www.w3.org/2000/svg" width="375" viewBox="0 0 375 375" height="375" version="1.0"><defs><clipPath id="a"><path d="M 112.5 132.953125 L 262.5 132.953125 L 262.5 241.703125 L 112.5 241.703125 Z M 112.5 132.953125"/></clipPath></defs><path fill="#919191" d="M 187.5 84.375 C 130.546875 84.375 84.375 130.546875 84.375 187.5 C 84.375 244.453125 130.546875 290.625 187.5 290.625 C 244.453125 290.625 290.625 244.453125 290.625 187.5 C 290.625 130.546875 244.453125 84.375 187.5 84.375 Z M 187.5 84.375"/><g clip-path="url(#a)"><path d="M 242.042969 160.140625 L 221.589844 160.140625 L 221.589844 132.953125 L 126.136719 132.953125 C 118.601562 132.953125 112.5 139.039062 112.5 146.546875 L 112.5 221.3125 L 126.136719 221.3125 C 126.136719 232.5625 135.308594 241.703125 146.589844 241.703125 C 157.875 241.703125 167.046875 232.5625 167.046875 221.3125 L 207.953125 221.3125 C 207.953125 232.5625 217.125 241.703125 228.410156 241.703125 C 239.691406 241.703125 248.863281 232.5625 248.863281 221.3125 L 262.5 221.3125 L 262.5 187.328125 Z M 146.589844 231.507812 C 140.933594 231.507812 136.363281 226.957031 136.363281 221.3125 C 136.363281 215.671875 140.933594 211.117188 146.589844 211.117188 C 152.25 211.117188 156.820312 215.671875 156.820312 221.3125 C 156.820312 226.957031 152.25 231.507812 146.589844 231.507812 Z M 238.636719 170.335938 L 252.035156 187.328125 L 221.589844 187.328125 L 221.589844 170.335938 Z M 228.410156 231.507812 C 222.75 231.507812 218.179688 226.957031 218.179688 221.3125 C 218.179688 215.671875 222.75 211.117188 228.410156 211.117188 C 234.066406 211.117188 238.636719 215.671875 238.636719 221.3125 C 238.636719 226.957031 234.066406 231.507812 228.410156 231.507812 Z M 228.410156 231.507812"/></g></svg>