<svg xmlns="http://www.w3.org/2000/svg" width="375" viewBox="0 0 375 375" height="375" version="1.0"><defs><clipPath id="a"><path d="M 142 112.5 L 233 112.5 L 233 207 L 142 207 Z M 142 112.5"/></clipPath><clipPath id="b"><path d="M 134.589844 180 L 240.339844 180 L 240.339844 262.5 L 134.589844 262.5 Z M 134.589844 180"/></clipPath></defs><path fill="#919191" d="M 187.5 84.375 C 130.546875 84.375 84.375 130.546875 84.375 187.5 C 84.375 244.453125 130.546875 290.625 187.5 290.625 C 244.453125 290.625 290.625 244.453125 290.625 187.5 C 290.625 130.546875 244.453125 84.375 187.5 84.375 Z M 187.5 84.375"/><g clip-path="url(#a)"><path d="M 187.46875 112.5 C 162.722656 112.5 142.800781 132.433594 142.800781 157.191406 L 142.800781 206.851562 L 155.207031 206.851562 L 155.207031 157.191406 C 155.207031 139.3125 169.59375 124.914062 187.46875 124.914062 C 205.339844 124.914062 219.726562 139.308594 219.726562 157.191406 L 219.726562 206.851562 L 232.136719 206.851562 L 232.136719 157.191406 C 232.136719 132.433594 212.214844 112.5 187.46875 112.5 Z M 187.46875 112.5" fill-rule="evenodd"/></g><g clip-path="url(#b)"><path d="M 135.316406 180.789062 L 239.621094 180.789062 C 239.789062 180.789062 239.933594 180.847656 240.054688 180.96875 C 240.175781 181.089844 240.234375 181.234375 240.234375 181.40625 L 240.234375 261.90625 C 240.234375 262.074219 240.175781 262.222656 240.054688 262.34375 C 239.933594 262.460938 239.789062 262.523438 239.621094 262.523438 L 135.316406 262.523438 C 135.144531 262.523438 135 262.460938 134.878906 262.34375 C 134.757812 262.222656 134.699219 262.074219 134.699219 261.90625 L 134.699219 181.40625 C 134.699219 181.234375 134.757812 181.089844 134.878906 180.96875 C 135 180.847656 135.144531 180.789062 135.316406 180.789062" fill-rule="evenodd"/></g></svg>