<svg xmlns="http://www.w3.org/2000/svg" width="375" viewBox="0 0 375 375" height="375" version="1.0"><defs><clipPath id="a"><path d="M 112.5 134.625 L 262.5 134.625 L 262.5 240.375 L 112.5 240.375 Z M 112.5 134.625"/></clipPath></defs><path fill="#919191" d="M 187.5 84.375 C 130.546875 84.375 84.375 130.546875 84.375 187.5 C 84.375 244.453125 130.546875 290.625 187.5 290.625 C 244.453125 290.625 290.625 244.453125 290.625 187.5 C 290.625 130.546875 244.453125 84.375 187.5 84.375 Z M 187.5 84.375"/><g clip-path="url(#a)"><path d="M 123.609375 134.625 C 117.550781 134.625 112.59375 139.582031 112.59375 145.640625 L 112.59375 229.359375 C 112.59375 235.417969 117.550781 240.375 123.609375 240.375 L 251.390625 240.375 C 257.449219 240.375 262.40625 235.417969 262.40625 229.359375 L 262.40625 145.640625 C 262.40625 139.582031 257.449219 134.625 251.390625 134.625 Z M 123.609375 139.03125 L 251.390625 139.03125 C 255.066406 139.03125 258 141.964844 258 145.640625 L 258 156.65625 L 117 156.65625 L 117 145.640625 C 117 141.964844 119.933594 139.03125 123.609375 139.03125 Z M 117 165.46875 L 258 165.46875 L 258 229.359375 C 258 233.035156 255.066406 235.96875 251.390625 235.96875 L 123.609375 235.96875 C 119.933594 235.96875 117 233.035156 117 229.359375 Z M 125.8125 176.484375 C 125.519531 176.484375 125.238281 176.539062 124.96875 176.652344 C 124.699219 176.765625 124.460938 176.921875 124.253906 177.128906 C 124.046875 177.335938 123.890625 177.574219 123.777344 177.84375 C 123.664062 178.113281 123.609375 178.394531 123.609375 178.6875 C 123.609375 178.980469 123.664062 179.261719 123.777344 179.53125 C 123.890625 179.800781 124.046875 180.039062 124.253906 180.246094 C 124.460938 180.453125 124.699219 180.609375 124.96875 180.722656 C 125.238281 180.835938 125.519531 180.890625 125.8125 180.890625 C 126.105469 180.890625 126.386719 180.835938 126.65625 180.722656 C 126.925781 180.609375 127.164062 180.453125 127.371094 180.246094 C 127.578125 180.039062 127.734375 179.800781 127.847656 179.53125 C 127.960938 179.261719 128.015625 178.980469 128.015625 178.6875 C 128.015625 178.394531 127.960938 178.113281 127.847656 177.84375 C 127.734375 177.574219 127.578125 177.335938 127.371094 177.128906 C 127.164062 176.921875 126.925781 176.765625 126.65625 176.652344 C 126.386719 176.539062 126.105469 176.484375 125.8125 176.484375 Z M 134.625 176.484375 C 134.332031 176.484375 134.050781 176.539062 133.78125 176.652344 C 133.511719 176.765625 133.273438 176.921875 133.066406 177.128906 C 132.859375 177.335938 132.703125 177.574219 132.589844 177.84375 C 132.476562 178.113281 132.421875 178.394531 132.421875 178.6875 C 132.421875 178.980469 132.476562 179.261719 132.589844 179.53125 C 132.703125 179.800781 132.859375 180.039062 133.066406 180.246094 C 133.273438 180.453125 133.511719 180.609375 133.78125 180.722656 C 134.050781 180.835938 134.332031 180.890625 134.625 180.890625 C 134.917969 180.890625 135.199219 180.835938 135.46875 180.722656 C 135.738281 180.609375 135.976562 180.453125 136.183594 180.246094 C 136.390625 180.039062 136.546875 179.800781 136.660156 179.53125 C 136.773438 179.261719 136.828125 178.980469 136.828125 178.6875 C 136.828125 178.394531 136.773438 178.113281 136.660156 177.84375 C 136.546875 177.574219 136.390625 177.335938 136.183594 177.128906 C 135.976562 176.921875 135.738281 176.765625 135.46875 176.652344 C 135.199219 176.539062 134.917969 176.484375 134.625 176.484375 Z M 143.4375 176.484375 C 143.144531 176.484375 142.863281 176.539062 142.59375 176.652344 C 142.324219 176.765625 142.085938 176.921875 141.878906 177.128906 C 141.671875 177.335938 141.515625 177.574219 141.402344 177.84375 C 141.289062 178.113281 141.234375 178.394531 141.234375 178.6875 C 141.234375 178.980469 141.289062 179.261719 141.402344 179.53125 C 141.515625 179.800781 141.671875 180.039062 141.878906 180.246094 C 142.085938 180.453125 142.324219 180.609375 142.59375 180.722656 C 142.863281 180.835938 143.144531 180.890625 143.4375 180.890625 C 143.730469 180.890625 144.011719 180.835938 144.28125 180.722656 C 144.550781 180.609375 144.789062 180.453125 144.996094 180.246094 C 145.203125 180.039062 145.359375 179.800781 145.472656 179.53125 C 145.585938 179.261719 145.640625 178.980469 145.640625 178.6875 C 145.640625 178.394531 145.585938 178.113281 145.472656 177.84375 C 145.359375 177.574219 145.203125 177.335938 144.996094 177.128906 C 144.789062 176.921875 144.550781 176.765625 144.28125 176.652344 C 144.011719 176.539062 143.730469 176.484375 143.4375 176.484375 Z M 152.25 176.484375 C 151.957031 176.484375 151.675781 176.539062 151.40625 176.652344 C 151.136719 176.765625 150.898438 176.921875 150.691406 177.128906 C 150.484375 177.335938 150.328125 177.574219 150.214844 177.84375 C 150.101562 178.113281 150.046875 178.394531 150.046875 178.6875 C 150.046875 178.980469 150.101562 179.261719 150.214844 179.53125 C 150.328125 179.800781 150.484375 180.039062 150.691406 180.246094 C 150.898438 180.453125 151.136719 180.609375 151.40625 180.722656 C 151.675781 180.835938 151.957031 180.890625 152.25 180.890625 C 152.542969 180.890625 152.824219 180.835938 153.09375 180.722656 C 153.363281 180.609375 153.601562 180.453125 153.808594 180.246094 C 154.015625 180.039062 154.171875 179.800781 154.285156 179.53125 C 154.398438 179.261719 154.453125 178.980469 154.453125 178.6875 C 154.453125 178.394531 154.398438 178.113281 154.285156 177.84375 C 154.171875 177.574219 154.015625 177.335938 153.808594 177.128906 C 153.601562 176.921875 153.363281 176.765625 153.09375 176.652344 C 152.824219 176.539062 152.542969 176.484375 152.25 176.484375 Z M 161.0625 176.484375 C 160.769531 176.484375 160.488281 176.539062 160.21875 176.652344 C 159.949219 176.765625 159.710938 176.921875 159.503906 177.128906 C 159.296875 177.335938 159.140625 177.574219 159.027344 177.84375 C 158.914062 178.113281 158.859375 178.394531 158.859375 178.6875 C 158.859375 178.980469 158.914062 179.261719 159.027344 179.53125 C 159.140625 179.800781 159.296875 180.039062 159.503906 180.246094 C 159.710938 180.453125 159.949219 180.609375 160.21875 180.722656 C 160.488281 180.835938 160.769531 180.890625 161.0625 180.890625 C 161.355469 180.890625 161.636719 180.835938 161.90625 180.722656 C 162.175781 180.609375 162.414062 180.453125 162.621094 180.246094 C 162.828125 180.039062 162.984375 179.800781 163.097656 179.53125 C 163.210938 179.261719 163.265625 178.980469 163.265625 178.6875 C 163.265625 178.394531 163.210938 178.113281 163.097656 177.84375 C 162.984375 177.574219 162.828125 177.335938 162.621094 177.128906 C 162.414062 176.921875 162.175781 176.765625 161.90625 176.652344 C 161.636719 176.539062 161.355469 176.484375 161.0625 176.484375 Z M 169.875 176.484375 C 169.582031 176.484375 169.300781 176.539062 169.03125 176.652344 C 168.761719 176.765625 168.523438 176.921875 168.316406 177.128906 C 168.109375 177.335938 167.953125 177.574219 167.839844 177.84375 C 167.726562 178.113281 167.671875 178.394531 167.671875 178.6875 C 167.671875 178.980469 167.726562 179.261719 167.839844 179.53125 C 167.953125 179.800781 168.109375 180.039062 168.316406 180.246094 C 168.523438 180.453125 168.761719 180.609375 169.03125 180.722656 C 169.300781 180.835938 169.582031 180.890625 169.875 180.890625 C 170.167969 180.890625 170.449219 180.835938 170.71875 180.722656 C 170.988281 180.609375 171.226562 180.453125 171.433594 180.246094 C 171.640625 180.039062 171.796875 179.800781 171.910156 179.53125 C 172.023438 179.261719 172.078125 178.980469 172.078125 178.6875 C 172.078125 178.394531 172.023438 178.113281 171.910156 177.84375 C 171.796875 177.574219 171.640625 177.335938 171.433594 177.128906 C 171.226562 176.921875 170.988281 176.765625 170.71875 176.652344 C 170.449219 176.539062 170.167969 176.484375 169.875 176.484375 Z M 178.6875 176.484375 C 178.394531 176.484375 178.113281 176.539062 177.84375 176.652344 C 177.574219 176.765625 177.335938 176.921875 177.128906 177.128906 C 176.921875 177.335938 176.765625 177.574219 176.652344 177.84375 C 176.539062 178.113281 176.484375 178.394531 176.484375 178.6875 C 176.484375 178.980469 176.539062 179.261719 176.652344 179.53125 C 176.765625 179.800781 176.921875 180.039062 177.128906 180.246094 C 177.335938 180.453125 177.574219 180.609375 177.84375 180.722656 C 178.113281 180.835938 178.394531 180.890625 178.6875 180.890625 C 178.980469 180.890625 179.261719 180.835938 179.53125 180.722656 C 179.800781 180.609375 180.039062 180.453125 180.246094 180.246094 C 180.453125 180.039062 180.609375 179.800781 180.722656 179.53125 C 180.835938 179.261719 180.890625 178.980469 180.890625 178.6875 C 180.890625 178.394531 180.835938 178.113281 180.722656 177.84375 C 180.609375 177.574219 180.453125 177.335938 180.246094 177.128906 C 180.039062 176.921875 179.800781 176.765625 179.53125 176.652344 C 179.261719 176.539062 178.980469 176.484375 178.6875 176.484375 Z M 213.9375 194.109375 C 205.445312 194.109375 198.515625 201.039062 198.515625 209.53125 C 198.515625 218.023438 205.445312 224.953125 213.9375 224.953125 C 217.210938 224.953125 220.246094 223.902344 222.742188 222.15625 C 224.035156 223.0625 225.433594 223.753906 226.9375 224.230469 C 228.441406 224.710938 229.984375 224.949219 231.5625 224.953125 C 232.574219 224.953125 233.578125 224.855469 234.570312 224.65625 C 235.5625 224.460938 236.527344 224.167969 237.464844 223.777344 C 238.398438 223.390625 239.289062 222.917969 240.128906 222.355469 C 240.972656 221.792969 241.75 221.152344 242.46875 220.4375 C 243.183594 219.71875 243.824219 218.941406 244.386719 218.097656 C 244.949219 217.257812 245.421875 216.367188 245.808594 215.433594 C 246.199219 214.496094 246.492188 213.53125 246.6875 212.539062 C 246.886719 211.546875 246.984375 210.542969 246.984375 209.53125 C 246.984375 208.519531 246.886719 207.515625 246.6875 206.523438 C 246.492188 205.53125 246.199219 204.566406 245.808594 203.628906 C 245.421875 202.695312 244.949219 201.804688 244.386719 200.964844 C 243.824219 200.121094 243.183594 199.34375 242.46875 198.625 C 241.75 197.910156 240.972656 197.269531 240.128906 196.707031 C 239.289062 196.144531 238.398438 195.671875 237.464844 195.285156 C 236.527344 194.894531 235.5625 194.601562 234.570312 194.40625 C 233.578125 194.207031 232.574219 194.109375 231.5625 194.109375 C 229.980469 194.109375 228.4375 194.347656 226.929688 194.824219 C 225.425781 195.300781 224.023438 195.992188 222.726562 196.898438 C 220.234375 195.15625 217.207031 194.109375 213.9375 194.109375 Z M 213.9375 198.515625 C 215.953125 198.515625 217.816406 199.074219 219.433594 200.015625 C 218.367188 201.375 217.550781 202.867188 216.988281 204.5 C 216.425781 206.128906 216.140625 207.804688 216.140625 209.53125 C 216.144531 211.253906 216.429688 212.933594 216.992188 214.5625 C 217.558594 216.1875 218.375 217.679688 219.441406 219.035156 C 217.820312 219.984375 215.957031 220.546875 213.9375 220.546875 C 207.828125 220.546875 202.921875 215.640625 202.921875 209.53125 C 202.921875 203.421875 207.828125 198.515625 213.9375 198.515625 Z M 213.9375 198.515625"/></g></svg>