<svg xmlns="http://www.w3.org/2000/svg" width="60" viewBox="0 0 60 30" height="30" version="1.0"><defs><clipPath id="a"><path d="M 0.96875 14 L 20 14 L 20 15 L 0.96875 15 Z M 0.96875 14"/></clipPath><clipPath id="b"><path d="M 40 14 L 59.03125 14 L 59.03125 16 L 40 16 Z M 40 14"/></clipPath></defs><g clip-path="url(#a)"><path stroke-linecap="round" transform="matrix(.73733 0 0 .7258 .968 14.589)" fill="none" d="M 0.499366 0.00156 L 25.102587 0.00156" stroke="#919191"/></g><g clip-path="url(#b)"><path stroke-linecap="round" transform="matrix(.73733 0 0 .7258 40.452 14.879)" fill="none" d="M 0.500051 -0.000176107 L 25.097973 -0.000176107" stroke="#919191"/></g><g><g><g><path d="M 0.71875 -0.859375 L 0.71875 0 L 0.21875 0 L 0.21875 -2.421875 L 1.15625 -2.421875 C 1.34375 -2.421875 1.503906 -2.382812 1.640625 -2.3125 C 1.773438 -2.25 1.878906 -2.15625 1.953125 -2.03125 C 2.035156 -1.914062 2.078125 -1.78125 2.078125 -1.625 C 2.078125 -1.382812 1.992188 -1.195312 1.828125 -1.0625 C 1.660156 -0.925781 1.4375 -0.859375 1.15625 -0.859375 Z M 0.71875 -1.25 L 1.15625 -1.25 C 1.289062 -1.25 1.390625 -1.28125 1.453125 -1.34375 C 1.523438 -1.40625 1.5625 -1.492188 1.5625 -1.609375 C 1.5625 -1.734375 1.523438 -1.832031 1.453125 -1.90625 C 1.390625 -1.976562 1.296875 -2.015625 1.171875 -2.015625 L 0.71875 -2.015625 Z M 0.71875 -1.25" transform="translate(20.02 15.62)"/></g></g></g><g><g><g><path d="M 1.109375 -0.890625 L 0.71875 -0.890625 L 0.71875 0 L 0.21875 0 L 0.21875 -2.421875 L 1.109375 -2.421875 C 1.398438 -2.421875 1.625 -2.359375 1.78125 -2.234375 C 1.9375 -2.109375 2.015625 -1.925781 2.015625 -1.6875 C 2.015625 -1.519531 1.976562 -1.378906 1.90625 -1.265625 C 1.832031 -1.160156 1.722656 -1.078125 1.578125 -1.015625 L 2.109375 -0.015625 L 2.109375 0 L 1.5625 0 Z M 0.71875 -1.296875 L 1.125 -1.296875 C 1.25 -1.296875 1.34375 -1.328125 1.40625 -1.390625 C 1.476562 -1.453125 1.515625 -1.539062 1.515625 -1.65625 C 1.515625 -1.769531 1.476562 -1.859375 1.40625 -1.921875 C 1.34375 -1.984375 1.242188 -2.015625 1.109375 -2.015625 L 0.71875 -2.015625 Z M 0.71875 -1.296875" transform="translate(22.218 15.62)"/></g></g></g><g><g><g><path d="M 2.203125 -1.15625 C 2.203125 -0.914062 2.160156 -0.707031 2.078125 -0.53125 C 1.992188 -0.351562 1.875 -0.210938 1.71875 -0.109375 C 1.5625 -0.015625 1.378906 0.03125 1.171875 0.03125 C 0.972656 0.03125 0.796875 -0.015625 0.640625 -0.109375 C 0.484375 -0.203125 0.359375 -0.335938 0.265625 -0.515625 C 0.179688 -0.703125 0.140625 -0.910156 0.140625 -1.140625 L 0.140625 -1.265625 C 0.140625 -1.503906 0.179688 -1.710938 0.265625 -1.890625 C 0.359375 -2.066406 0.484375 -2.203125 0.640625 -2.296875 C 0.796875 -2.398438 0.972656 -2.453125 1.171875 -2.453125 C 1.378906 -2.453125 1.5625 -2.398438 1.71875 -2.296875 C 1.875 -2.203125 1.992188 -2.066406 2.078125 -1.890625 C 2.160156 -1.710938 2.203125 -1.503906 2.203125 -1.265625 Z M 1.703125 -1.265625 C 1.703125 -1.515625 1.65625 -1.707031 1.5625 -1.84375 C 1.46875 -1.976562 1.335938 -2.046875 1.171875 -2.046875 C 1.003906 -2.046875 0.875 -1.976562 0.78125 -1.84375 C 0.695312 -1.71875 0.65625 -1.53125 0.65625 -1.28125 L 0.65625 -1.15625 C 0.65625 -0.90625 0.695312 -0.710938 0.78125 -0.578125 C 0.875 -0.441406 1.003906 -0.375 1.171875 -0.375 C 1.335938 -0.375 1.46875 -0.4375 1.5625 -0.5625 C 1.65625 -0.695312 1.703125 -0.890625 1.703125 -1.140625 Z M 1.703125 -1.265625" transform="translate(24.391 15.62)"/></g></g></g><g><g><g><path d="M 0.21875 0 L 0.21875 -2.421875 L 0.96875 -2.421875 C 1.175781 -2.421875 1.363281 -2.375 1.53125 -2.28125 C 1.695312 -2.1875 1.828125 -2.050781 1.921875 -1.875 C 2.015625 -1.695312 2.0625 -1.492188 2.0625 -1.265625 L 2.0625 -1.15625 C 2.0625 -0.925781 2.015625 -0.722656 1.921875 -0.546875 C 1.835938 -0.378906 1.707031 -0.242188 1.53125 -0.140625 C 1.363281 -0.046875 1.175781 0 0.96875 0 Z M 0.71875 -2.015625 L 0.71875 -0.40625 L 0.953125 -0.40625 C 1.148438 -0.40625 1.300781 -0.46875 1.40625 -0.59375 C 1.507812 -0.71875 1.5625 -0.898438 1.5625 -1.140625 L 1.5625 -1.265625 C 1.5625 -1.515625 1.507812 -1.703125 1.40625 -1.828125 C 1.300781 -1.953125 1.15625 -2.015625 0.96875 -2.015625 Z M 0.71875 -2.015625" transform="translate(26.743 15.62)"/></g></g></g><g><g><g><path d="M 2.046875 -2.421875 L 2.046875 -0.828125 C 2.046875 -0.554688 1.960938 -0.34375 1.796875 -0.1875 C 1.628906 -0.0390625 1.40625 0.03125 1.125 0.03125 C 0.84375 0.03125 0.617188 -0.0390625 0.453125 -0.1875 C 0.285156 -0.34375 0.195312 -0.550781 0.1875 -0.8125 L 0.1875 -2.421875 L 0.6875 -2.421875 L 0.6875 -0.828125 C 0.6875 -0.660156 0.722656 -0.539062 0.796875 -0.46875 C 0.878906 -0.40625 0.988281 -0.375 1.125 -0.375 C 1.40625 -0.375 1.546875 -0.519531 1.546875 -0.8125 L 1.546875 -2.421875 Z M 2.046875 -2.421875" transform="translate(28.956 15.62)"/></g></g></g><g><g><g><path d="M 2.125 -0.8125 C 2.101562 -0.550781 2.003906 -0.34375 1.828125 -0.1875 C 1.648438 -0.0390625 1.421875 0.03125 1.140625 0.03125 C 0.828125 0.03125 0.582031 -0.0703125 0.40625 -0.28125 C 0.226562 -0.488281 0.140625 -0.773438 0.140625 -1.140625 L 0.140625 -1.28125 C 0.140625 -1.519531 0.179688 -1.726562 0.265625 -1.90625 C 0.347656 -2.082031 0.460938 -2.21875 0.609375 -2.3125 C 0.765625 -2.40625 0.945312 -2.453125 1.15625 -2.453125 C 1.425781 -2.453125 1.644531 -2.375 1.8125 -2.21875 C 1.988281 -2.070312 2.09375 -1.863281 2.125 -1.59375 L 1.625 -1.59375 C 1.613281 -1.75 1.566406 -1.863281 1.484375 -1.9375 C 1.410156 -2.007812 1.300781 -2.046875 1.15625 -2.046875 C 0.988281 -2.046875 0.863281 -1.984375 0.78125 -1.859375 C 0.695312 -1.742188 0.65625 -1.5625 0.65625 -1.3125 L 0.65625 -1.125 C 0.65625 -0.863281 0.691406 -0.671875 0.765625 -0.546875 C 0.847656 -0.429688 0.972656 -0.375 1.140625 -0.375 C 1.296875 -0.375 1.410156 -0.40625 1.484375 -0.46875 C 1.566406 -0.539062 1.613281 -0.65625 1.625 -0.8125 Z M 2.125 -0.8125" transform="translate(31.198 15.62)"/></g></g></g><g><g><g><path d="M 2.046875 -2.015625 L 1.296875 -2.015625 L 1.296875 0 L 0.796875 0 L 0.796875 -2.015625 L 0.0625 -2.015625 L 0.0625 -2.421875 L 2.046875 -2.421875 Z M 2.046875 -2.015625" transform="translate(33.426 15.62)"/></g></g></g><g><g><g><path d="M 2.203125 -1.15625 C 2.203125 -0.914062 2.160156 -0.707031 2.078125 -0.53125 C 1.992188 -0.351562 1.875 -0.210938 1.71875 -0.109375 C 1.5625 -0.015625 1.378906 0.03125 1.171875 0.03125 C 0.972656 0.03125 0.796875 -0.015625 0.640625 -0.109375 C 0.484375 -0.203125 0.359375 -0.335938 0.265625 -0.515625 C 0.179688 -0.703125 0.140625 -0.910156 0.140625 -1.140625 L 0.140625 -1.265625 C 0.140625 -1.503906 0.179688 -1.710938 0.265625 -1.890625 C 0.359375 -2.066406 0.484375 -2.203125 0.640625 -2.296875 C 0.796875 -2.398438 0.972656 -2.453125 1.171875 -2.453125 C 1.378906 -2.453125 1.5625 -2.398438 1.71875 -2.296875 C 1.875 -2.203125 1.992188 -2.066406 2.078125 -1.890625 C 2.160156 -1.710938 2.203125 -1.503906 2.203125 -1.265625 Z M 1.703125 -1.265625 C 1.703125 -1.515625 1.65625 -1.707031 1.5625 -1.84375 C 1.46875 -1.976562 1.335938 -2.046875 1.171875 -2.046875 C 1.003906 -2.046875 0.875 -1.976562 0.78125 -1.84375 C 0.695312 -1.71875 0.65625 -1.53125 0.65625 -1.28125 L 0.65625 -1.15625 C 0.65625 -0.90625 0.695312 -0.710938 0.78125 -0.578125 C 0.875 -0.441406 1.003906 -0.375 1.171875 -0.375 C 1.335938 -0.375 1.46875 -0.4375 1.5625 -0.5625 C 1.65625 -0.695312 1.703125 -0.890625 1.703125 -1.140625 Z M 1.703125 -1.265625" transform="translate(35.533 15.62)"/></g></g></g><g><g><g><path d="M 1.46875 -0.640625 C 1.46875 -0.734375 1.429688 -0.800781 1.359375 -0.84375 C 1.296875 -0.894531 1.175781 -0.945312 1 -1 C 0.832031 -1.0625 0.703125 -1.117188 0.609375 -1.171875 C 0.328125 -1.328125 0.1875 -1.53125 0.1875 -1.78125 C 0.1875 -1.90625 0.222656 -2.019531 0.296875 -2.125 C 0.367188 -2.226562 0.472656 -2.304688 0.609375 -2.359375 C 0.753906 -2.421875 0.910156 -2.453125 1.078125 -2.453125 C 1.253906 -2.453125 1.410156 -2.421875 1.546875 -2.359375 C 1.679688 -2.296875 1.785156 -2.207031 1.859375 -2.09375 C 1.929688 -1.976562 1.96875 -1.847656 1.96875 -1.703125 L 1.46875 -1.703125 C 1.46875 -1.816406 1.429688 -1.90625 1.359375 -1.96875 C 1.296875 -2.03125 1.203125 -2.0625 1.078125 -2.0625 C 0.953125 -2.0625 0.851562 -2.035156 0.78125 -1.984375 C 0.71875 -1.929688 0.6875 -1.863281 0.6875 -1.78125 C 0.6875 -1.695312 0.722656 -1.628906 0.796875 -1.578125 C 0.878906 -1.523438 1 -1.472656 1.15625 -1.421875 C 1.4375 -1.335938 1.640625 -1.234375 1.765625 -1.109375 C 1.898438 -0.984375 1.96875 -0.828125 1.96875 -0.640625 C 1.96875 -0.429688 1.890625 -0.265625 1.734375 -0.140625 C 1.578125 -0.0234375 1.363281 0.03125 1.09375 0.03125 C 0.90625 0.03125 0.734375 0 0.578125 -0.0625 C 0.429688 -0.132812 0.316406 -0.226562 0.234375 -0.34375 C 0.148438 -0.46875 0.109375 -0.609375 0.109375 -0.765625 L 0.609375 -0.765625 C 0.609375 -0.492188 0.769531 -0.359375 1.09375 -0.359375 C 1.207031 -0.359375 1.296875 -0.378906 1.359375 -0.421875 C 1.429688 -0.472656 1.46875 -0.546875 1.46875 -0.640625 Z M 1.46875 -0.640625" transform="translate(37.885 15.62)"/></g></g></g></svg>